# MagicaVoxel @ Ephtracy

# group
o 

# material
mtllib untitled.mtl
usemtl palette

# normals
vn -1 0 0
vn 1 0 0
vn 0 0 1
vn 0 0 -1
vn 0 -1 0
vn 0 1 0

# texcoords
vt 0.0449219 0.5
vt 0.0644531 0.5
vt 0.173828 0.5

# verts
v 1.5 3.8 0
v 1.5 3.8 -0.3
v 1.5 3.8 -3
v 1.5 4.4 0
v 1.5 4.4 -0.3
v 1.5 4.4 -3
v 1.6 3.7 0
v 1.6 3.7 -0.3
v 1.6 3.7 -2.9
v 1.6 3.8 0
v 1.6 3.8 -0.3
v 1.6 3.8 -2.9
v 1.6 3.8 -3
v 1.6 3.8 -3.1
v 1.6 4.3 -3
v 1.6 4.3 -3.1
v 1.6 4.4 0
v 1.6 4.4 -0.3
v 1.6 4.4 -2.9
v 1.6 4.5 0
v 1.6 4.5 -0.3
v 1.6 4.5 -2.9
v 1.7 3.6 0
v 1.7 3.6 -0.3
v 1.7 3.6 -2.8
v 1.7 3.7 0
v 1.7 3.7 -0.3
v 1.7 3.7 -2.8
v 1.7 3.7 -2.9
v 1.7 3.7 -3
v 1.7 3.8 -2.9
v 1.7 3.8 -3
v 1.7 3.9 -3.1
v 1.7 3.9 -3.2
v 1.7 4.2 -3.1
v 1.7 4.2 -3.2
v 1.7 4.5 0
v 1.7 4.5 -0.3
v 1.7 4.5 -2.8
v 1.7 4.6 0
v 1.7 4.6 -0.3
v 1.7 4.6 -2.8
v 1.8 3.6 -2.8
v 1.8 3.6 -2.9
v 1.8 3.7 -2.8
v 1.8 3.7 -2.9
v 2.4 3.8 0
v 2.4 3.8 -0.1
v 2.4 4.4 0
v 2.4 4.4 -0.1
v 1.7 3.8 0
v 1.7 3.8 -0.1
v 1.7 4.4 0
v 1.7 4.4 -0.1
v 2.3 3.6 -2.8
v 2.3 3.6 -2.9
v 2.3 3.7 -2.8
v 2.3 3.7 -2.9
v 2.4 3.6 0
v 2.4 3.6 -0.3
v 2.4 3.6 -2.8
v 2.4 3.7 0
v 2.4 3.7 -0.3
v 2.4 3.7 -2.8
v 2.4 3.7 -2.9
v 2.4 3.7 -3
v 2.4 3.8 -2.9
v 2.4 3.8 -3
v 2.4 3.9 -3.1
v 2.4 3.9 -3.2
v 2.4 4.2 -3.1
v 2.4 4.2 -3.2
v 2.4 4.5 0
v 2.4 4.5 -0.3
v 2.4 4.5 -2.8
v 2.4 4.6 0
v 2.4 4.6 -0.3
v 2.4 4.6 -2.8
v 2.5 3.7 0
v 2.5 3.7 -0.3
v 2.5 3.7 -2.9
v 2.5 3.8 0
v 2.5 3.8 -0.3
v 2.5 3.8 -2.9
v 2.5 3.8 -3
v 2.5 3.8 -3.1
v 2.5 4.3 -3
v 2.5 4.3 -3.1
v 2.5 4.4 0
v 2.5 4.4 -0.3
v 2.5 4.4 -2.9
v 2.5 4.5 0
v 2.5 4.5 -0.3
v 2.5 4.5 -2.9
v 2.6 3.8 0
v 2.6 3.8 -0.3
v 2.6 3.8 -3
v 2.6 4.4 0
v 2.6 4.4 -0.3
v 2.6 4.4 -3
v 1.5 3.8 0
v 1.5 4.4 0
v 1.6 3.7 0
v 1.6 3.8 0
v 1.6 4.4 0
v 1.6 4.5 0
v 1.7 3.6 0
v 1.7 3.7 0
v 1.7 3.8 0
v 1.7 4.4 0
v 1.7 4.5 0
v 1.7 4.6 0
v 2.4 3.6 0
v 2.4 3.7 0
v 2.4 3.8 0
v 2.4 4.4 0
v 2.4 4.5 0
v 2.4 4.6 0
v 2.5 3.7 0
v 2.5 3.8 0
v 2.5 4.4 0
v 2.5 4.5 0
v 2.6 3.8 0
v 2.6 4.4 0
v 1.7 3.8 -0.1
v 1.7 4.4 -0.1
v 2.4 3.8 -0.1
v 2.4 4.4 -0.1
v 1.7 3.6 -2.8
v 1.7 3.7 -2.8
v 1.7 4.5 -2.8
v 1.7 4.6 -2.8
v 1.8 3.6 -2.8
v 1.8 3.7 -2.8
v 2.3 3.6 -2.8
v 2.3 3.7 -2.8
v 2.4 3.6 -2.8
v 2.4 3.7 -2.8
v 2.4 4.5 -2.8
v 2.4 4.6 -2.8
v 1.6 3.7 -2.9
v 1.6 3.8 -2.9
v 1.6 4.4 -2.9
v 1.6 4.5 -2.9
v 1.7 3.7 -2.9
v 1.7 3.8 -2.9
v 1.8 3.6 -2.9
v 1.8 3.7 -2.9
v 2.3 3.6 -2.9
v 2.3 3.7 -2.9
v 2.4 3.7 -2.9
v 2.4 3.8 -2.9
v 2.5 3.7 -2.9
v 2.5 3.8 -2.9
v 2.5 4.4 -2.9
v 2.5 4.5 -2.9
v 1.5 3.8 -3
v 1.5 4.4 -3
v 1.6 3.8 -3
v 1.6 4.3 -3
v 1.7 3.7 -3
v 1.7 3.8 -3
v 2.4 3.7 -3
v 2.4 3.8 -3
v 2.5 3.8 -3
v 2.5 4.3 -3
v 2.6 3.8 -3
v 2.6 4.4 -3
v 1.6 3.8 -3.1
v 1.6 4.3 -3.1
v 1.7 3.9 -3.1
v 1.7 4.2 -3.1
v 2.4 3.9 -3.1
v 2.4 4.2 -3.1
v 2.5 3.8 -3.1
v 2.5 4.3 -3.1
v 1.7 3.9 -3.2
v 1.7 4.2 -3.2
v 2.4 3.9 -3.2
v 2.4 4.2 -3.2
v 1.7 3.6 0
v 2.4 3.6 0
v 1.7 3.6 -0.3
v 2.4 3.6 -0.3
v 1.7 3.6 -2.8
v 1.8 3.6 -2.8
v 2.3 3.6 -2.8
v 2.4 3.6 -2.8
v 1.8 3.6 -2.9
v 2.3 3.6 -2.9
v 1.6 3.7 0
v 1.7 3.7 0
v 2.4 3.7 0
v 2.5 3.7 0
v 1.6 3.7 -0.3
v 1.7 3.7 -0.3
v 2.4 3.7 -0.3
v 2.5 3.7 -0.3
v 1.7 3.7 -2.8
v 1.8 3.7 -2.8
v 2.3 3.7 -2.8
v 2.4 3.7 -2.8
v 1.6 3.7 -2.9
v 1.7 3.7 -2.9
v 1.8 3.7 -2.9
v 2.3 3.7 -2.9
v 2.4 3.7 -2.9
v 2.5 3.7 -2.9
v 1.7 3.7 -3
v 2.4 3.7 -3
v 1.5 3.8 0
v 1.6 3.8 0
v 2.5 3.8 0
v 2.6 3.8 0
v 1.5 3.8 -0.3
v 1.6 3.8 -0.3
v 2.5 3.8 -0.3
v 2.6 3.8 -0.3
v 1.6 3.8 -2.9
v 1.7 3.8 -2.9
v 2.4 3.8 -2.9
v 2.5 3.8 -2.9
v 1.5 3.8 -3
v 1.6 3.8 -3
v 1.7 3.8 -3
v 2.4 3.8 -3
v 2.5 3.8 -3
v 2.6 3.8 -3
v 1.6 3.8 -3.1
v 2.5 3.8 -3.1
v 1.7 3.9 -3.1
v 2.4 3.9 -3.1
v 1.7 3.9 -3.2
v 2.4 3.9 -3.2
v 1.7 4.4 0
v 2.4 4.4 0
v 1.7 4.4 -0.1
v 2.4 4.4 -0.1
v 1.7 3.8 0
v 2.4 3.8 0
v 1.7 3.8 -0.1
v 2.4 3.8 -0.1
v 1.7 4.2 -3.1
v 2.4 4.2 -3.1
v 1.7 4.2 -3.2
v 2.4 4.2 -3.2
v 1.6 4.3 -3
v 2.5 4.3 -3
v 1.6 4.3 -3.1
v 2.5 4.3 -3.1
v 1.5 4.4 0
v 1.6 4.4 0
v 2.5 4.4 0
v 2.6 4.4 0
v 1.5 4.4 -0.3
v 1.6 4.4 -0.3
v 2.5 4.4 -0.3
v 2.6 4.4 -0.3
v 1.6 4.4 -2.9
v 2.5 4.4 -2.9
v 1.5 4.4 -3
v 2.6 4.4 -3
v 1.6 4.5 0
v 1.7 4.5 0
v 2.4 4.5 0
v 2.5 4.5 0
v 1.6 4.5 -0.3
v 1.7 4.5 -0.3
v 2.4 4.5 -0.3
v 2.5 4.5 -0.3
v 1.7 4.5 -2.8
v 2.4 4.5 -2.8
v 1.6 4.5 -2.9
v 2.5 4.5 -2.9
v 1.7 4.6 0
v 2.4 4.6 0
v 1.7 4.6 -0.3
v 2.4 4.6 -0.3
v 1.7 4.6 -2.8
v 2.4 4.6 -2.8

# faces
f 4/2/1 2/2/1 1/2/1
f 5/1/1 3/1/1 2/1/1
f 5/2/1 2/2/1 4/2/1
f 6/1/1 3/1/1 5/1/1
f 10/2/1 8/2/1 7/2/1
f 11/1/1 9/1/1 8/1/1
f 11/2/1 8/2/1 10/2/1
f 12/1/1 9/1/1 11/1/1
f 15/1/1 14/1/1 13/1/1
f 16/1/1 14/1/1 15/1/1
f 20/2/1 18/2/1 17/2/1
f 21/1/1 19/1/1 18/1/1
f 21/2/1 18/2/1 20/2/1
f 22/1/1 19/1/1 21/1/1
f 26/2/1 24/2/1 23/2/1
f 27/1/1 25/1/1 24/1/1
f 27/2/1 24/2/1 26/2/1
f 28/1/1 25/1/1 27/1/1
f 31/1/1 30/1/1 29/1/1
f 32/1/1 30/1/1 31/1/1
f 35/1/1 34/1/1 33/1/1
f 36/1/1 34/1/1 35/1/1
f 40/2/1 38/2/1 37/2/1
f 41/1/1 39/1/1 38/1/1
f 41/2/1 38/2/1 40/2/1
f 42/1/1 39/1/1 41/1/1
f 45/1/1 44/1/1 43/1/1
f 46/1/1 44/1/1 45/1/1
f 49/2/1 48/2/1 47/2/1
f 50/2/1 48/2/1 49/2/1
f 51/2/2 52/2/2 53/2/2
f 53/2/2 52/2/2 54/2/2
f 55/1/2 56/1/2 57/1/2
f 57/1/2 56/1/2 58/1/2
f 59/2/2 60/2/2 62/2/2
f 60/1/2 61/1/2 63/1/2
f 62/2/2 60/2/2 63/2/2
f 63/1/2 61/1/2 64/1/2
f 65/1/2 66/1/2 67/1/2
f 67/1/2 66/1/2 68/1/2
f 69/1/2 70/1/2 71/1/2
f 71/1/2 70/1/2 72/1/2
f 73/2/2 74/2/2 76/2/2
f 74/1/2 75/1/2 77/1/2
f 76/2/2 74/2/2 77/2/2
f 77/1/2 75/1/2 78/1/2
f 79/2/2 80/2/2 82/2/2
f 80/1/2 81/1/2 83/1/2
f 82/2/2 80/2/2 83/2/2
f 83/1/2 81/1/2 84/1/2
f 85/1/2 86/1/2 87/1/2
f 87/1/2 86/1/2 88/1/2
f 89/2/2 90/2/2 92/2/2
f 90/1/2 91/1/2 93/1/2
f 92/2/2 90/2/2 93/2/2
f 93/1/2 91/1/2 94/1/2
f 95/2/2 96/2/2 98/2/2
f 96/1/2 97/1/2 99/1/2
f 98/2/2 96/2/2 99/2/2
f 99/1/2 97/1/2 100/1/2
f 104/2/3 102/2/3 101/2/3
f 105/2/3 102/2/3 104/2/3
f 108/2/3 104/2/3 103/2/3
f 108/2/3 106/2/3 105/2/3
f 108/2/3 105/2/3 104/2/3
f 109/2/3 106/2/3 108/2/3
f 110/2/3 106/2/3 109/2/3
f 111/2/3 106/2/3 110/2/3
f 113/2/3 108/2/3 107/2/3
f 113/2/3 109/2/3 108/2/3
f 114/2/3 109/2/3 113/2/3
f 115/2/3 109/2/3 114/2/3
f 116/2/3 112/2/3 111/2/3
f 116/2/3 111/2/3 110/2/3
f 117/2/3 112/2/3 116/2/3
f 118/2/3 112/2/3 117/2/3
f 119/2/3 115/2/3 114/2/3
f 119/2/3 117/2/3 116/2/3
f 119/2/3 116/2/3 115/2/3
f 120/2/3 117/2/3 119/2/3
f 121/2/3 117/2/3 120/2/3
f 122/2/3 117/2/3 121/2/3
f 123/2/3 121/2/3 120/2/3
f 124/2/3 121/2/3 123/2/3
f 127/3/3 126/3/3 125/3/3
f 128/3/3 126/3/3 127/3/3
f 129/1/4 130/1/4 133/1/4
f 133/1/4 130/1/4 134/1/4
f 135/1/4 136/1/4 137/1/4
f 137/1/4 136/1/4 138/1/4
f 131/1/4 132/1/4 139/1/4
f 139/1/4 132/1/4 140/1/4
f 141/1/4 142/1/4 145/1/4
f 145/1/4 142/1/4 146/1/4
f 147/1/4 148/1/4 149/1/4
f 149/1/4 148/1/4 150/1/4
f 151/1/4 152/1/4 153/1/4
f 153/1/4 152/1/4 154/1/4
f 143/1/4 144/1/4 155/1/4
f 155/1/4 144/1/4 156/1/4
f 157/1/4 158/1/4 159/1/4
f 159/1/4 158/1/4 160/1/4
f 161/1/4 162/1/4 163/1/4
f 163/1/4 162/1/4 164/1/4
f 160/1/4 158/1/4 166/1/4
f 165/1/4 166/1/4 167/1/4
f 166/1/4 158/1/4 168/1/4
f 167/1/4 166/1/4 168/1/4
f 169/1/4 170/1/4 171/1/4
f 171/1/4 170/1/4 172/1/4
f 169/1/4 171/1/4 173/1/4
f 172/1/4 170/1/4 174/1/4
f 169/1/4 173/1/4 175/1/4
f 173/1/4 174/1/4 175/1/4
f 174/1/4 170/1/4 176/1/4
f 175/1/4 174/1/4 176/1/4
f 177/1/4 178/1/4 179/1/4
f 179/1/4 178/1/4 180/1/4
f 183/2/5 182/2/5 181/2/5
f 184/2/5 182/2/5 183/2/5
f 185/1/5 184/1/5 183/1/5
f 186/1/5 184/1/5 185/1/5
f 187/1/5 184/1/5 186/1/5
f 188/1/5 184/1/5 187/1/5
f 189/1/5 187/1/5 186/1/5
f 190/1/5 187/1/5 189/1/5
f 195/2/5 192/2/5 191/2/5
f 196/2/5 192/2/5 195/2/5
f 197/2/5 194/2/5 193/2/5
f 198/2/5 194/2/5 197/2/5
f 199/1/5 196/1/5 195/1/5
f 202/1/5 198/1/5 197/1/5
f 203/1/5 200/1/5 199/1/5
f 203/1/5 199/1/5 195/1/5
f 204/1/5 200/1/5 203/1/5
f 205/1/5 200/1/5 204/1/5
f 206/1/5 202/1/5 201/1/5
f 207/1/5 198/1/5 202/1/5
f 207/1/5 202/1/5 206/1/5
f 208/1/5 198/1/5 207/1/5
f 209/1/5 205/1/5 204/1/5
f 209/1/5 206/1/5 205/1/5
f 209/1/5 207/1/5 206/1/5
f 210/1/5 207/1/5 209/1/5
f 215/2/5 212/2/5 211/2/5
f 216/2/5 212/2/5 215/2/5
f 217/2/5 214/2/5 213/2/5
f 218/2/5 214/2/5 217/2/5
f 219/1/5 216/1/5 215/1/5
f 222/1/5 218/1/5 217/1/5
f 223/1/5 220/1/5 219/1/5
f 223/1/5 219/1/5 215/1/5
f 224/1/5 220/1/5 223/1/5
f 225/1/5 220/1/5 224/1/5
f 226/1/5 222/1/5 221/1/5
f 227/1/5 218/1/5 222/1/5
f 227/1/5 222/1/5 226/1/5
f 228/1/5 218/1/5 227/1/5
f 229/1/5 225/1/5 224/1/5
f 229/1/5 226/1/5 225/1/5
f 229/1/5 227/1/5 226/1/5
f 230/1/5 227/1/5 229/1/5
f 233/1/5 232/1/5 231/1/5
f 234/1/5 232/1/5 233/1/5
f 237/2/5 236/2/5 235/2/5
f 238/2/5 236/2/5 237/2/5
f 239/2/6 240/2/6 241/2/6
f 241/2/6 240/2/6 242/2/6
f 243/1/6 244/1/6 245/1/6
f 245/1/6 244/1/6 246/1/6
f 247/1/6 248/1/6 249/1/6
f 249/1/6 248/1/6 250/1/6
f 251/2/6 252/2/6 255/2/6
f 255/2/6 252/2/6 256/2/6
f 253/2/6 254/2/6 257/2/6
f 257/2/6 254/2/6 258/2/6
f 255/1/6 256/1/6 259/1/6
f 257/1/6 258/1/6 260/1/6
f 255/1/6 259/1/6 261/1/6
f 259/1/6 260/1/6 261/1/6
f 260/1/6 258/1/6 262/1/6
f 261/1/6 260/1/6 262/1/6
f 263/2/6 264/2/6 267/2/6
f 267/2/6 264/2/6 268/2/6
f 265/2/6 266/2/6 269/2/6
f 269/2/6 266/2/6 270/2/6
f 267/1/6 268/1/6 271/1/6
f 269/1/6 270/1/6 272/1/6
f 267/1/6 271/1/6 273/1/6
f 271/1/6 272/1/6 273/1/6
f 272/1/6 270/1/6 274/1/6
f 273/1/6 272/1/6 274/1/6
f 275/2/6 276/2/6 277/2/6
f 277/2/6 276/2/6 278/2/6
f 277/1/6 278/1/6 279/1/6
f 279/1/6 278/1/6 280/1/6
